<?xml version="1.0" encoding="utf-8"?>
<!-- Generator: Adobe Illustrator 19.2.1, SVG Export Plug-In . SVG Version: 6.00 Build 0)  -->
<svg version="1.1" id="Warstwa_1" xmlns="http://www.w3.org/2000/svg" xmlns:xlink="http://www.w3.org/1999/xlink" x="0px" y="0px"
	 viewBox="0 0 888.1 108.9" style="enable-background:new 0 0 888.1 108.9;" xml:space="preserve">
<style type="text/css">
	.st0{fill:#EDC7B7;}
	.st1{fill:#AC3B61;}
	.st2{fill:#123C69;}
	.st3{fill:#FFFFFF;}
</style>
<circle class="st0" cx="54.4" cy="54.4" r="54.4"/>
<path class="st1" d="M29.3,14.4h9v80h-9V14.4z M39.5,54.2l31.3-39.8h10.6L50.3,53.8l33.9,40.6H73.1L39.5,54.2z"/>
<path class="st2" d="M16.1,54.5c0-21.9,18.2-40.1,40-40.1c10,0.1,19.7,4.7,26.8,11.8l-5.1,6.9c-5.6-5.7-13.4-9.8-22-9.8
	C40.1,23.4,25,36.9,25,54.5s15,31.1,30.9,31.1c8.8,0,16.3-4.2,21.9-9.7l5.1,7.1c-6.5,6.4-15.2,11.4-26.7,11.4
	C34.5,94.4,16.1,76.6,16.1,54.5z"/>
<rect x="29.3" y="14.4" class="st1" width="9" height="80"/>
<path class="st3" d="M123.8,30.8h5.3V78h-5.3V30.8z M129.8,54.3l18.5-23.5h6.3L136.2,54l20,24h-6.6L129.8,54.3z"/>
<path class="st3" d="M160,59.7V30.8h5.4v28.9c0,7.9,5.2,13.7,12.1,13.7s12.1-5.8,12.1-13.7V30.8h5.4v28.9c0,11-7.4,19.1-17.5,19.1
	C167.5,78.8,160,70.7,160,59.7z"/>
<path class="st3" d="M236.9,63.6c0,7.5-5.9,14.4-14.9,14.4h-17.5V30.8h12.9c7.9,0,13.6,5.6,13.6,11.8c0,5.1-3.7,8.8-6.1,8.8
	C230.9,51.4,236.9,56.5,236.9,63.6z M209.8,36v14.3h7.9c5.1,0,8.3-3.1,8.3-7.1s-3.8-7.2-8.3-7.2H209.8z M231.7,63.3
	c0-4.4-4.2-8.3-10.4-8.2h-11.5v17.8h11.7C226.9,72.8,231.7,68.8,231.7,63.3z"/>
<path class="st3" d="M273.3,70.3h-25.8l-3.5,7.8h-5.8l21.8-48h0.6l21.9,48h-5.8L273.3,70.3z M271.2,65.7l-10.8-24.3l-10.8,24.3
	H271.2z"/>
<path class="st3" d="M303.3,54.5c0-13.3,11-24.3,24.3-24.3c6.1,0.1,12,2.8,16.2,7.1l-3.1,4.2c-3.4-3.5-8.1-5.9-13.3-5.9
	c-9.5,0-18.7,8.2-18.7,18.9s9.1,18.8,18.8,18.8c5.3,0,9.9-2.5,13.3-5.9l3.1,4.3c-3.9,3.9-9.2,6.9-16.2,6.9
	C314.5,78.7,303.3,67.9,303.3,54.5z"/>
<path class="st3" d="M381.1,70.3h-25.8l-3.5,7.8H346l21.8-48h0.6l21.9,48h-5.8L381.1,70.3z M379.1,65.7l-10.8-24.3l-10.8,24.3H379.1
	z"/>
<path class="st3" d="M424.5,72.7V78H396V30.8h5.3v41.9H424.5z"/>
<path class="st3" d="M430.5,59.7V30.8h5.4v28.9c0,7.9,5.2,13.7,12.1,13.7s12.1-5.8,12.1-13.7V30.8h5.4v28.9c0,11-7.4,19.1-17.5,19.1
	C438,78.8,430.5,70.7,430.5,59.7z"/>
<path class="st3" d="M472,69.6l4.1-3c2.1,4,7,6.7,12,6.7c6.2,0,11.2-3.3,11.2-8c0-5.3-6.8-7.9-12.8-10.1
	c-5.8-2.3-12.3-5.1-12.3-12.4s6.5-12.7,14.8-12.7c7,0,11.8,3.8,13.5,8.5l-4,2.7c-1.5-3.5-5.3-5.9-9.6-5.9c-5.1,0-9.4,3.3-9.4,7.6
	c0,4.6,5.2,6.2,11.3,8.6c7.1,2.9,13.8,6.2,13.8,13.7c0,8.1-7.5,13.4-16.6,13.4C480.3,78.7,474.2,74.7,472,69.6z"/>
<path class="st3" d="M529.2,30.8h15c9.1,0,16.6,6.9,16.6,15.2c0,8-7.5,14.6-16.6,14.6h-9.6V78h-5.3V30.8H529.2z M555.4,46
	c0-5.4-5.1-9.9-11.3-9.9h-9.6v19.2h9.6C550.4,55.4,555.4,51.2,555.4,46z"/>
<path class="st3" d="M564.8,54.5c0-13.4,10.9-24.3,24.3-24.3c13.4,0,24.3,10.9,24.3,24.3c0,13.3-10.9,24.2-24.3,24.2
	S564.8,67.8,564.8,54.5z M607.9,54.4c0-10.4-8.5-18.9-18.9-18.9s-18.8,8.5-18.8,18.9s8.5,18.8,18.8,18.8
	C599.4,73.3,607.9,64.8,607.9,54.4z"/>
<path class="st3" d="M648.1,78L635,59.6h-8.8V78h-5.3V30.8h13.9c8.8,0,15.9,6.7,15.9,15.1c0,6.1-4.2,11.4-9.9,13.1l14,19H648.1z
	 M634.9,55.1c5.6,0,10.3-4.3,10.3-9.4c0-5.4-4.7-9.7-10.3-9.7h-8.8v19L634.9,55.1z"/>
<path class="st3" d="M688.3,36.1h-13.7v42h-5.3v-42h-13.7v-5.3h32.8L688.3,36.1L688.3,36.1z"/>
<path class="st3" d="M700.1,36v15.7h19.4V57h-19.4v21h-5.3V30.7h27.7V36H700.1z"/>
<path class="st3" d="M725.5,54.5c0-13.4,10.9-24.3,24.3-24.3c13.4,0,24.3,10.9,24.3,24.3c0,13.3-10.9,24.2-24.3,24.2
	S725.5,67.8,725.5,54.5z M768.7,54.4c0-10.4-8.5-18.9-18.9-18.9S731,44,731,54.4s8.5,18.8,18.8,18.8
	C760.2,73.3,768.7,64.8,768.7,54.4z"/>
<path class="st3" d="M810,72.7V78h-28.5V30.8h5.3v41.9H810z"/>
<path class="st3" d="M816.5,30.8h5.3V78h-5.3V30.8z"/>
<path class="st3" d="M829.3,54.5c0-13.4,10.9-24.3,24.3-24.3c13.4,0,24.3,10.9,24.3,24.3c0,13.3-10.9,24.2-24.3,24.2
	S829.3,67.8,829.3,54.5z M872.4,54.4c0-10.4-8.5-18.9-18.9-18.9s-18.8,8.5-18.8,18.9s8.5,18.8,18.8,18.8
	C863.9,73.3,872.4,64.8,872.4,54.4z"/>
</svg>
