<?xml version="1.0" encoding="utf-8"?>
<!-- Generator: Adobe Illustrator 19.2.1, SVG Export Plug-In . SVG Version: 6.00 Build 0)  -->
<svg version="1.1" xmlns="http://www.w3.org/2000/svg" xmlns:xlink="http://www.w3.org/1999/xlink" x="0px" y="0px"
	 viewBox="0 0 500 500" style="enable-background:new 0 0 500 500;" xml:space="preserve">
<style type="text/css">
	.st0{fill:#EDC7B7;}
	.st1{fill:#AC3B61;}
	.st2{fill:#123C69;}
</style>
<g id="Warstwa_1">
	<circle class="st0" cx="250" cy="250" r="250"/>
</g>
<g id="Warstwa_2">
	<g>
		<path class="st1" d="M134.6,66.3h41.5v367.4h-41.5V66.3z M181.5,248.9L325.1,66.3h48.8L231,247l155.9,186.7h-51.1L181.5,248.9z"/>
		<path class="st2" d="M73.9,250.4c0-100.5,83.4-184.1,183.7-184.1c45.9,0.4,90.5,21.5,122.9,54.1L357,152.2
			c-25.7-26.4-61.7-44.8-100.9-44.8c-71.9,0-141.3,62.1-141.3,143.1c0,80.8,68.8,142.7,142,142.7c40.4,0,74.8-19.1,100.5-44.4
			l23.3,32.4c-29.7,29.5-69.9,52.6-122.7,52.6C158.4,433.7,73.9,351.8,73.9,250.4z"/>
		<rect x="134.6" y="66.3" class="st1" width="41.5" height="367.4"/>
	</g>
</g>
</svg>
