<?xml version="1.0" encoding="utf-8"?>
<!-- Generator: Adobe Illustrator 19.2.1, SVG Export Plug-In . SVG Version: 6.00 Build 0)  -->
<svg version="1.1" xmlns="http://www.w3.org/2000/svg" xmlns:xlink="http://www.w3.org/1999/xlink" x="0px" y="0px"
	 viewBox="0 0 1827.4 236.1" style="enable-background:new 0 0 1827.4 236.1;" xml:space="preserve">
<style type="text/css">
	.st0{fill:#123C69;}
	.st1{fill:#AC3B61;}
	.st2{fill:#EDC7B7;}
	.st3{fill:#FFFFFF;}
</style>
<g id="Warstwa_2">
	<rect x="0" y="0" class="st0" width="1827.4" height="236.1"/>
	<rect x="533.8" y="0" class="st1" width="1293.6" height="236.1"/>
</g>
<g id="Warstwa_3">
	<path class="st2" d="M625.7,199.1V35c0-19.9-21.9-36-49.4-36H354.2c27.4,0,48.5,16.1,48.5,36v164.1c0,21.6,25.6,37,50.8,37h222.2
		C650.4,236.1,625.7,220.7,625.7,199.1z"/>
</g>
<g id="Warstwa_1">
	<circle class="st2" cx="163.7" cy="118.1" r="54.4"/>
	<path class="st1" d="M138.6,78.1h9v80h-9V78.1z M148.8,117.8l31.3-39.8h10.6l-31.1,39.4l33.9,40.6h-11.1L148.8,117.8z"/>
	<path class="st0" d="M125.4,118.2c0-21.9,18.2-40.1,40-40.1c10,0.1,19.7,4.7,26.8,11.8l-5.1,6.9c-5.6-5.7-13.4-9.8-22-9.8
		c-15.7,0-30.8,13.5-30.8,31.2c0,17.6,15,31.1,30.9,31.1c8.8,0,16.3-4.2,21.9-9.7l5.1,7.1c-6.5,6.4-15.2,11.4-26.7,11.4
		C143.8,158.1,125.4,140.2,125.4,118.2z"/>
	<rect x="138.6" y="78.1" class="st1" width="9" height="80"/>
	<path class="st1" d="M233.1,94.4h5.3v47.2h-5.3V94.4z M239.1,117.9l18.5-23.5h6.3l-18.4,23.2l20,24h-6.6L239.1,117.9z"/>
	<path class="st3" d="M269.3,123.3V94.4h5.4v28.9c0,7.9,5.2,13.7,12.1,13.7s12.1-5.8,12.1-13.7V94.4h5.4v28.9
		c0,11-7.4,19.1-17.5,19.1C276.8,142.4,269.3,134.4,269.3,123.3z"/>
	<path class="st3" d="M346.2,127.3c0,7.5-5.9,14.4-14.9,14.4h-17.5V94.4h12.9c7.9,0,13.6,5.6,13.6,11.8c0,5.1-3.7,8.8-6.1,8.8
		C340.1,115.1,346.2,120.1,346.2,127.3z M319,99.6v14.3h7.9c5.1,0,8.3-3.1,8.3-7.1c0-4-3.8-7.2-8.3-7.2H319z M341,126.9
		c0-4.4-4.2-8.3-10.4-8.2H319v17.8h11.7C336.2,136.5,341,132.4,341,126.9z"/>
	<path class="st3" d="M382.6,133.9h-25.8l-3.5,7.8h-5.8l21.8-48h0.6l21.9,48H386L382.6,133.9z M380.5,129.3L369.7,105l-10.8,24.3
		H380.5z"/>
	<path class="st0" d="M412.6,118.1c0-13.3,11-24.3,24.3-24.3c6.1,0.1,12,2.8,16.2,7.1l-3.1,4.2c-3.4-3.5-8.1-5.9-13.3-5.9
		c-9.5,0-18.7,8.2-18.7,18.9c0,10.7,9.1,18.8,18.8,18.8c5.3,0,9.9-2.5,13.3-5.9l3.1,4.3c-3.9,3.9-9.2,6.9-16.2,6.9
		C423.8,142.3,412.6,131.5,412.6,118.1z"/>
	<path class="st3" d="M490.4,133.9h-25.8l-3.5,7.8h-5.8l21.8-48h0.6l21.9,48h-5.8L490.4,133.9z M488.3,129.3L477.5,105l-10.8,24.3
		H488.3z"/>
	<path class="st3" d="M533.8,136.4v5.3h-28.5V94.4h5.3v41.9H533.8z"/>
	<path class="st3" d="M539.8,123.3V94.4h5.4v28.9c0,7.9,5.2,13.7,12.1,13.7s12.1-5.8,12.1-13.7V94.4h5.4v28.9
		c0,11-7.4,19.1-17.5,19.1C547.3,142.4,539.8,134.4,539.8,123.3z"/>
	<path class="st3" d="M581.3,133.2l4.1-3c2.1,4,7,6.7,12,6.7c6.2,0,11.2-3.3,11.2-8c0-5.3-6.8-7.9-12.8-10.1
		c-5.8-2.3-12.3-5.1-12.3-12.4c0-7.3,6.5-12.7,14.8-12.7c7,0,11.8,3.8,13.5,8.5l-4,2.7c-1.5-3.5-5.3-5.9-9.6-5.9
		c-5.1,0-9.4,3.3-9.4,7.6c0,4.6,5.2,6.2,11.3,8.6c7.1,2.9,13.8,6.2,13.8,13.7c0,8.1-7.5,13.4-16.6,13.4
		C589.5,142.3,583.5,138.3,581.3,133.2z"/>
	<path class="st2" d="M638.5,94.4h15c9.1,0,16.6,6.9,16.6,15.2c0,8-7.5,14.6-16.6,14.6h-9.6v17.4h-5.3V94.4z M664.7,109.6
		c0-5.4-5.1-9.9-11.3-9.9h-9.6V119l9.6,0C659.7,119,664.7,114.8,664.7,109.6z"/>
	<path class="st3" d="M674,118.1c0-13.4,10.9-24.3,24.3-24.3c13.4,0,24.3,10.9,24.3,24.3c0,13.3-10.9,24.2-24.3,24.2
		C685,142.3,674,131.4,674,118.1z M717.2,118.1c0-10.4-8.5-18.9-18.9-18.9c-10.4,0-18.8,8.5-18.8,18.9c0,10.4,8.5,18.8,18.8,18.8
		C708.7,136.9,717.2,128.4,717.2,118.1z"/>
	<path class="st3" d="M757.4,141.7l-13.2-18.4h-8.8v18.4h-5.3l0-47.2H744c8.8,0,15.9,6.7,15.9,15.1c0,6.1-4.2,11.4-9.9,13.1l14,19
		H757.4z M744.2,118.8c5.6,0,10.3-4.3,10.3-9.4c0-5.4-4.7-9.7-10.3-9.7h-8.8v19L744.2,118.8z"/>
	<path class="st3" d="M797.6,99.7h-13.7v42h-5.3v-42h-13.7v-5.3h32.8V99.7z"/>
	<path class="st3" d="M809.4,99.6v15.7h19.4v5.3h-19.4v21h-5.3V94.3h27.7v5.3H809.4z"/>
	<path class="st3" d="M834.8,118.1c0-13.4,10.9-24.3,24.3-24.3c13.4,0,24.3,10.9,24.3,24.3c0,13.3-10.9,24.2-24.3,24.2
		C845.7,142.3,834.8,131.4,834.8,118.1z M877.9,118.1c0-10.4-8.5-18.9-18.9-18.9c-10.4,0-18.8,8.5-18.8,18.9
		c0,10.4,8.5,18.8,18.8,18.8C869.4,136.9,877.9,128.4,877.9,118.1z"/>
	<path class="st3" d="M919.3,136.4v5.3h-28.5V94.4h5.3v41.9H919.3z"/>
	<path class="st3" d="M925.8,94.4h5.3v47.2h-5.3V94.4z"/>
	<path class="st3" d="M938.6,118.1c0-13.4,10.9-24.3,24.3-24.3c13.4,0,24.3,10.9,24.3,24.3c0,13.3-10.9,24.2-24.3,24.2
		C949.5,142.3,938.6,131.4,938.6,118.1z M981.7,118.1c0-10.4-8.5-18.9-18.9-18.9c-10.4,0-18.8,8.5-18.8,18.9
		c0,10.4,8.5,18.8,18.8,18.8C973.2,136.9,981.7,128.4,981.7,118.1z"/>
</g>
</svg>
