<?xml version="1.0" encoding="utf-8"?>
<!-- Generator: Adobe Illustrator 19.2.1, SVG Export Plug-In . SVG Version: 6.00 Build 0)  -->
<svg version="1.1" id="Warstwa_1" xmlns="http://www.w3.org/2000/svg" xmlns:xlink="http://www.w3.org/1999/xlink" x="0px" y="0px"
	 viewBox="0 0 1920 800" style="enable-background:new 0 0 1920 800;" xml:space="preserve">
<style type="text/css">
	.st0{fill:#EDC7B7;}
	.st1{fill:#123C69;}
	.st2{fill:#AC3B61;}
	.st3{fill:none;}
</style>
<rect x="0" y="0" class="st0" width="1919.2" height="800"/>
<rect x="560.8" class="st0" width="1359.2" height="800"/>
<g>
	<path class="st2" d="M884.2,337V59.8c0-33.6-30.4-60.8-68.6-60.8H507.2c38.1,0,67.4,27.2,67.4,60.8V337c0,36.5,35.6,62.5,70.6,62.5
		h308.6C918.5,399.5,884.2,373.5,884.2,337z"/>
	<path class="st1" d="M577.3,337V59.8c0-33.6-29.7-60.8-67.1-60.8H208.7c37.2,0,65.8,27.2,65.8,60.8V337c0,36.5,34.8,62.5,69,62.5
		h301.7C610.9,399.5,577.3,373.5,577.3,337z"/>
	<path class="st2" d="M1033.4,737.5V460.3c0-33.6-30.4-60.8-68.6-60.8H656.4c38.1,0,67.4,27.2,67.4,60.8v277.2
		c0,36.5,35.6,62.5,70.6,62.5h308.6C1067.7,800,1033.4,774,1033.4,737.5z"/>
	<path class="st1" d="M726.5,737.5V460.3c0-33.6-29.7-60.8-67.1-60.8H357.9c37.2,0,65.8,27.2,65.8,60.8v277.2
		c0,36.5,34.8,62.5,69,62.5h301.7C760.1,800,726.5,774,726.5,737.5z"/>
</g>
<rect x="0" y="0" class="st3" width="229.9" height="800"/>
<rect x="1689.3" class="st3" width="229.9" height="2441.3"/>
</svg>
